<?xml version="1.0"?>
<svg xmlns="http://www.w3.org/2000/svg" viewBox="0 0 50 50">
    <path style="text-indent:0;text-align:start;line-height:normal;text-transform:none;block-progression:tb;-inkscape-font-specification:Sans" d="M 2 2 L 2 6 L 15 6 L 15 16 L 2 16 L 2 20 L 17 20 L 19 20 L 19 18 L 19 13 L 31 13 L 31 37 L 19 37 L 19 32 L 19 30 L 17 30 L 2 30 L 2 34 L 15 34 L 15 44 L 2 44 L 2 48 L 17 48 L 19 48 L 19 46 L 19 41 L 33 41 L 35 41 L 35 39 L 35 27 L 48 27 L 48 23 L 35 23 L 35 11 L 35 9 L 33 9 L 19 9 L 19 4 L 19 2 L 17 2 L 2 2 z" overflow="visible" font-family="Sans"/>
</svg>
